<mxfile host="app.diagrams.net" modified="2023-08-03T22:54:40.719Z" agent="Mozilla/5.0 (Macintosh; Intel Mac OS X 10_15_7) AppleWebKit/537.36 (KHTML, like Gecko) Chrome/115.0.0.0 Safari/537.36" etag="4zz2od5P2CENXbSHN8R_" version="21.6.6" type="device">
  <diagram name="Page-1" id="hkwY6AxrzP6Nc72l0_Wm">
    <mxGraphModel dx="954" dy="549" grid="1" gridSize="10" guides="1" tooltips="1" connect="1" arrows="1" fold="1" page="1" pageScale="1" pageWidth="850" pageHeight="1100" math="0" shadow="0">
      <root>
        <mxCell id="0" />
        <mxCell id="1" parent="0" />
        <mxCell id="51OCsD8VZg1FOQ2K79QD-37" value="" style="rounded=0;whiteSpace=wrap;html=1;dashed=1;" vertex="1" parent="1">
          <mxGeometry x="200" y="60" width="430" height="420" as="geometry" />
        </mxCell>
        <mxCell id="51OCsD8VZg1FOQ2K79QD-21" value="" style="rounded=0;whiteSpace=wrap;html=1;strokeColor=#BABABA;" vertex="1" parent="1">
          <mxGeometry x="210" y="350" width="410" height="120" as="geometry" />
        </mxCell>
        <mxCell id="51OCsD8VZg1FOQ2K79QD-14" value="" style="rounded=0;whiteSpace=wrap;html=1;strokeColor=#BABABA;" vertex="1" parent="1">
          <mxGeometry x="209" y="200" width="411" height="120" as="geometry" />
        </mxCell>
        <mxCell id="51OCsD8VZg1FOQ2K79QD-13" style="edgeStyle=orthogonalEdgeStyle;rounded=0;orthogonalLoop=1;jettySize=auto;html=1;" edge="1" parent="1" source="51OCsD8VZg1FOQ2K79QD-2" target="51OCsD8VZg1FOQ2K79QD-6">
          <mxGeometry relative="1" as="geometry">
            <Array as="points">
              <mxPoint x="190" y="225" />
              <mxPoint x="190" y="265" />
            </Array>
          </mxGeometry>
        </mxCell>
        <mxCell id="51OCsD8VZg1FOQ2K79QD-2" value="" style="verticalLabelPosition=bottom;html=1;verticalAlign=top;align=center;strokeColor=none;fillColor=#00BEF2;shape=mxgraph.azure.website_generic;pointerEvents=1;" vertex="1" parent="1">
          <mxGeometry x="20" y="200" width="60" height="50" as="geometry" />
        </mxCell>
        <mxCell id="51OCsD8VZg1FOQ2K79QD-11" value="" style="edgeStyle=orthogonalEdgeStyle;rounded=0;orthogonalLoop=1;jettySize=auto;html=1;" edge="1" parent="1" source="51OCsD8VZg1FOQ2K79QD-6" target="51OCsD8VZg1FOQ2K79QD-10">
          <mxGeometry relative="1" as="geometry" />
        </mxCell>
        <mxCell id="51OCsD8VZg1FOQ2K79QD-6" value="API Management" style="image;aspect=fixed;html=1;points=[];align=center;fontSize=10;image=img/lib/azure2/integration/API_Management_Services.svg;" vertex="1" parent="1">
          <mxGeometry x="241.91" y="240" width="54.18" height="50" as="geometry" />
        </mxCell>
        <mxCell id="51OCsD8VZg1FOQ2K79QD-7" value="Azure Table Storage" style="verticalLabelPosition=bottom;html=1;verticalAlign=top;align=center;strokeColor=none;fillColor=#00BEF2;shape=mxgraph.azure.storage_table;fontSize=10;" vertex="1" parent="1">
          <mxGeometry x="531.91" y="243" width="50" height="45" as="geometry" />
        </mxCell>
        <mxCell id="51OCsD8VZg1FOQ2K79QD-12" value="" style="edgeStyle=orthogonalEdgeStyle;rounded=0;orthogonalLoop=1;jettySize=auto;html=1;" edge="1" parent="1" source="51OCsD8VZg1FOQ2K79QD-10" target="51OCsD8VZg1FOQ2K79QD-7">
          <mxGeometry relative="1" as="geometry" />
        </mxCell>
        <mxCell id="51OCsD8VZg1FOQ2K79QD-24" style="edgeStyle=orthogonalEdgeStyle;rounded=0;orthogonalLoop=1;jettySize=auto;html=1;entryX=0.463;entryY=-0.017;entryDx=0;entryDy=0;entryPerimeter=0;" edge="1" parent="1" target="51OCsD8VZg1FOQ2K79QD-21">
          <mxGeometry relative="1" as="geometry">
            <mxPoint x="416" y="320" as="sourcePoint" />
          </mxGeometry>
        </mxCell>
        <mxCell id="51OCsD8VZg1FOQ2K79QD-10" value="Azure Web App (.NET6)" style="verticalLabelPosition=bottom;html=1;verticalAlign=top;align=center;strokeColor=none;fillColor=#00BEF2;shape=mxgraph.azure.azure_website;pointerEvents=1;fontSize=10;" vertex="1" parent="1">
          <mxGeometry x="391.90999999999997" y="240" width="50" height="50" as="geometry" />
        </mxCell>
        <mxCell id="51OCsD8VZg1FOQ2K79QD-15" value="AJAX Requests" style="text;html=1;align=center;verticalAlign=middle;resizable=0;points=[];autosize=1;strokeColor=none;fillColor=none;fontSize=10;" vertex="1" parent="1">
          <mxGeometry x="90" y="200" width="90" height="30" as="geometry" />
        </mxCell>
        <mxCell id="51OCsD8VZg1FOQ2K79QD-16" value="API" style="text;html=1;align=center;verticalAlign=middle;resizable=0;points=[];autosize=1;strokeColor=none;fillColor=none;" vertex="1" parent="1">
          <mxGeometry x="208" y="200" width="40" height="30" as="geometry" />
        </mxCell>
        <mxCell id="51OCsD8VZg1FOQ2K79QD-20" value="" style="edgeStyle=orthogonalEdgeStyle;rounded=0;orthogonalLoop=1;jettySize=auto;html=1;startArrow=classic;startFill=1;" edge="1" parent="1" source="51OCsD8VZg1FOQ2K79QD-17" target="51OCsD8VZg1FOQ2K79QD-18">
          <mxGeometry relative="1" as="geometry" />
        </mxCell>
        <mxCell id="51OCsD8VZg1FOQ2K79QD-17" value="Azure App Configuration" style="image;sketch=0;aspect=fixed;html=1;points=[];align=center;fontSize=10;image=img/lib/mscae/App_Configuration.svg;" vertex="1" parent="1">
          <mxGeometry x="329.5" y="385" width="50" height="49" as="geometry" />
        </mxCell>
        <mxCell id="51OCsD8VZg1FOQ2K79QD-18" value="Azure Key Vault" style="image;sketch=0;aspect=fixed;html=1;points=[];align=center;fontSize=10;image=img/lib/mscae/Key_Vaults.svg;" vertex="1" parent="1">
          <mxGeometry x="453.40999999999997" y="385" width="48" height="50" as="geometry" />
        </mxCell>
        <mxCell id="51OCsD8VZg1FOQ2K79QD-25" value="Configuration" style="text;html=1;align=center;verticalAlign=middle;resizable=0;points=[];autosize=1;strokeColor=none;fillColor=none;" vertex="1" parent="1">
          <mxGeometry x="279" y="348" width="90" height="30" as="geometry" />
        </mxCell>
        <mxCell id="51OCsD8VZg1FOQ2K79QD-26" value="" style="rounded=0;whiteSpace=wrap;html=1;strokeColor=#BABABA;" vertex="1" parent="1">
          <mxGeometry x="210.45" y="70" width="119.55" height="120" as="geometry" />
        </mxCell>
        <mxCell id="51OCsD8VZg1FOQ2K79QD-27" value="Data Cleanup" style="text;html=1;align=center;verticalAlign=middle;resizable=0;points=[];autosize=1;strokeColor=none;fillColor=none;" vertex="1" parent="1">
          <mxGeometry x="222" y="71" width="100" height="30" as="geometry" />
        </mxCell>
        <mxCell id="51OCsD8VZg1FOQ2K79QD-29" value="Azure Timer Function" style="image;aspect=fixed;html=1;points=[];align=center;fontSize=10;image=img/lib/azure2/iot/Function_Apps.svg;" vertex="1" parent="1">
          <mxGeometry x="238" y="101" width="68" height="60" as="geometry" />
        </mxCell>
        <mxCell id="51OCsD8VZg1FOQ2K79QD-30" value="" style="rounded=0;whiteSpace=wrap;html=1;strokeColor=#BABABA;fontSize=10;" vertex="1" parent="1">
          <mxGeometry x="337" y="71" width="283" height="120" as="geometry" />
        </mxCell>
        <mxCell id="51OCsD8VZg1FOQ2K79QD-31" value="CI/CD &amp;amp; Monitoring" style="text;html=1;align=center;verticalAlign=middle;resizable=0;points=[];autosize=1;strokeColor=none;fillColor=none;" vertex="1" parent="1">
          <mxGeometry x="337" y="71" width="130" height="30" as="geometry" />
        </mxCell>
        <mxCell id="51OCsD8VZg1FOQ2K79QD-32" value="Pipelines" style="image;sketch=0;aspect=fixed;html=1;points=[];align=center;fontSize=10;image=img/lib/mscae/Azure_Pipelines.svg;" vertex="1" parent="1">
          <mxGeometry x="350" y="111" width="50" height="50" as="geometry" />
        </mxCell>
        <mxCell id="51OCsD8VZg1FOQ2K79QD-33" value="Github Actions" style="shape=image;html=1;verticalAlign=top;verticalLabelPosition=bottom;labelBackgroundColor=#ffffff;imageAspect=0;aspect=fixed;image=https://cdn1.iconfinder.com/data/icons/unicons-line-vol-3/24/github-128.png;fontSize=10;" vertex="1" parent="1">
          <mxGeometry x="409" y="103" width="58" height="58" as="geometry" />
        </mxCell>
        <mxCell id="51OCsD8VZg1FOQ2K79QD-34" value="" style="endArrow=none;dashed=1;html=1;rounded=0;exitX=0.548;exitY=1;exitDx=0;exitDy=0;exitPerimeter=0;" edge="1" parent="1" source="51OCsD8VZg1FOQ2K79QD-30">
          <mxGeometry width="50" height="50" relative="1" as="geometry">
            <mxPoint x="441.90999999999997" y="121" as="sourcePoint" />
            <mxPoint x="491.90999999999997" y="71" as="targetPoint" />
          </mxGeometry>
        </mxCell>
        <mxCell id="51OCsD8VZg1FOQ2K79QD-35" value="Log Analytics" style="image;aspect=fixed;html=1;points=[];align=center;fontSize=10;image=img/lib/azure2/analytics/Log_Analytics_Workspaces.svg;" vertex="1" parent="1">
          <mxGeometry x="510" y="80" width="40" height="40" as="geometry" />
        </mxCell>
        <mxCell id="51OCsD8VZg1FOQ2K79QD-36" value="Insights" style="image;aspect=fixed;html=1;points=[];align=center;fontSize=10;image=img/lib/azure2/management_governance/Application_Insights.svg;" vertex="1" parent="1">
          <mxGeometry x="560" y="80" width="44" height="63" as="geometry" />
        </mxCell>
        <mxCell id="51OCsD8VZg1FOQ2K79QD-40" style="edgeStyle=orthogonalEdgeStyle;rounded=0;orthogonalLoop=1;jettySize=auto;html=1;entryX=0.467;entryY=1.007;entryDx=0;entryDy=0;entryPerimeter=0;" edge="1" parent="1" target="51OCsD8VZg1FOQ2K79QD-37">
          <mxGeometry relative="1" as="geometry">
            <mxPoint x="401" y="540" as="sourcePoint" />
          </mxGeometry>
        </mxCell>
        <mxCell id="51OCsD8VZg1FOQ2K79QD-42" value="Azure Resource Manager&lt;br style=&quot;border-color: var(--border-color); font-size: 10px;&quot;&gt;&lt;span style=&quot;font-size: 10px;&quot;&gt;(ARM Templates)&lt;/span&gt;" style="dashed=0;outlineConnect=0;html=1;align=center;labelPosition=center;verticalLabelPosition=bottom;verticalAlign=top;shape=mxgraph.weblogos.json_2" vertex="1" parent="1">
          <mxGeometry x="361.8" y="540" width="80.4" height="25.200000000000003" as="geometry" />
        </mxCell>
      </root>
    </mxGraphModel>
  </diagram>
</mxfile>
